<svg width="20" height="20" viewBox="0 0 20 20" fill="none" xmlns="http://www.w3.org/2000/svg">
<path fill-rule="evenodd" clip-rule="evenodd" d="M17.5 9.24835V13.4092C17.5 15.9892 17.5 17.28 16.8883 17.8434C16.5967 18.1125 16.2283 18.2817 15.8358 18.3267C15.0133 18.4209 14.0525 17.5709 12.1317 15.8717C11.2817 15.1209 10.8575 14.745 10.3667 14.6467C10.1247 14.5973 9.87528 14.5973 9.63333 14.6467C9.14167 14.745 8.7175 15.1209 7.86833 15.8717C5.9475 17.5709 4.98667 18.4209 4.16417 18.3259C3.77106 18.2806 3.40249 18.1117 3.11167 17.8434C2.5 17.28 2.5 15.99 2.5 13.4092V9.24752C2.5 5.67502 2.5 3.88835 3.59833 2.77752C4.69667 1.66669 6.465 1.66669 10 1.66669C13.535 1.66669 15.3033 1.66669 16.4017 2.77669C17.5 3.88669 17.5 5.67502 17.5 9.24835ZM6.875 5.00002C6.875 4.83426 6.94085 4.67529 7.05806 4.55808C7.17527 4.44087 7.33424 4.37502 7.5 4.37502H12.5C12.6658 4.37502 12.8247 4.44087 12.9419 4.55808C13.0592 4.67529 13.125 4.83426 13.125 5.00002C13.125 5.16578 13.0592 5.32475 12.9419 5.44196C12.8247 5.55917 12.6658 5.62502 12.5 5.62502H7.5C7.33424 5.62502 7.17527 5.55917 7.05806 5.44196C6.94085 5.32475 6.875 5.16578 6.875 5.00002Z" fill="#0471B6"/>
</svg>
