<svg width="24" height="24" viewBox="0 0 24 24" fill="none" xmlns="http://www.w3.org/2000/svg">
<path d="M4.06001 9.75006C3.85406 10.4823 3.74975 11.2394 3.75001 12.0001C3.75001 12.7801 3.85801 13.5351 4.06001 14.2501H7.43101C7.35011 13.5028 7.30938 12.7517 7.30901 12.0001C7.30901 11.2841 7.34901 10.5211 7.43101 9.75006H4.06001ZM2.76001 8.88306C2.7751 8.79288 2.80554 8.70595 2.85001 8.62606C3.54047 6.755 4.7879 5.14056 6.42418 4.0003C8.06047 2.86005 10.007 2.24879 12.0014 2.2489C13.9958 2.24901 15.9422 2.86048 17.5783 4.00091C19.2145 5.14134 20.4618 6.75592 21.152 8.62706C21.1962 8.70602 21.2266 8.79191 21.242 8.88105C21.572 9.86105 21.751 10.9091 21.751 12.0001C21.751 13.0901 21.571 14.1401 21.241 15.1191C21.2259 15.2081 21.1958 15.294 21.152 15.3731C20.4617 17.2442 19.2143 18.8587 17.5781 19.999C15.9419 21.1393 13.9954 21.7507 12.001 21.7507C10.0066 21.7507 8.06015 21.1393 6.42393 19.999C4.78771 18.8587 3.54037 17.2442 2.85001 15.3731C2.80565 15.2935 2.77521 15.2069 2.76001 15.1171C2.42086 14.1129 2.24858 13.0599 2.25001 12.0001C2.25001 10.9101 2.43001 9.86106 2.76001 8.88306ZM12 3.75006C11.572 3.75006 11.168 3.94206 10.772 4.37406C10.365 4.81706 10.002 5.48106 9.69901 6.31606C9.48401 6.91006 9.30901 7.56606 9.17401 8.25006H14.826C14.6992 7.59327 14.5237 6.94682 14.301 6.31606C13.999 5.48106 13.635 4.81706 13.228 4.37406C12.832 3.94206 12.428 3.75006 12 3.75006ZM16.57 14.2501H19.94C20.142 13.5351 20.25 12.7801 20.25 12.0001C20.25 11.2201 20.142 10.4651 19.94 9.75006H16.57C16.652 10.5211 16.691 11.2841 16.691 12.0001C16.691 12.7161 16.652 13.4791 16.57 14.2501ZM14.825 15.7501H9.17401C9.31001 16.4331 9.48401 17.0901 9.69901 17.6841C10.001 18.5191 10.365 19.1831 10.772 19.6261C11.168 20.0581 11.572 20.2501 12 20.2501C12.428 20.2501 12.832 20.0581 13.228 19.6261C13.635 19.1831 13.999 18.5191 14.301 17.6841C14.516 17.0901 14.691 16.4341 14.826 15.7501M8.96601 19.6751C8.69605 19.2029 8.46946 18.7072 8.28901 18.1941C8.00842 17.3984 7.7937 16.5809 7.64701 15.7501H4.65001C5.56511 17.5388 7.09944 18.9339 8.96701 19.6751M19.35 8.25006C18.4349 6.46126 16.9006 5.06626 15.033 4.32505C15.298 4.77905 15.522 5.28206 15.711 5.80606C15.985 6.56306 16.198 7.39606 16.354 8.25006H19.35Z" fill="black"/>
</svg>
